<?xml version="1.0" encoding="UTF-8"?>
<svg version="1.1" xmlns="http://www.w3.org/2000/svg" width="500" height="500">
<path d="M0 0 C165 0 330 0 500 0 C500 165 500 330 500 500 C335 500 170 500 0 500 C0 335 0 170 0 0 Z " fill="#FEFEFE" transform="translate(0,0)"/>
<path d="M0 0 C19.8 0 39.6 0 60 0 C55.45227777 23.87554173 55.45227777 23.87554173 53.125 34.0625 C52.61407088 36.34493743 52.10367251 38.62749372 51.59375 40.91015625 C50.78247771 44.52707856 49.96743515 48.14302883 49.14453125 51.75732422 C48.2939743 55.50256508 47.45846084 59.25092254 46.625 63 C46.36219238 64.13832275 46.09938477 65.27664551 45.82861328 66.44946289 C44.46631376 72.63379035 43.75321362 78.25730202 44.10302734 84.59301758 C43.92711178 88.70285529 42.09837292 91.52456985 40 95 C40.33 95.33 40.66 95.66 41 96 C42.80066242 93.0534615 44.50163895 90.11198065 46 87 C48.00498215 91.00996431 47.62288228 95.65157655 47 100 C44.94893852 104.10212295 42.14799488 107.13676516 38.49609375 109.8828125 C34.55906754 114.79947434 33.94326682 120.41177306 32.75 126.5 C32.36714844 128.33498047 32.36714844 128.33498047 31.9765625 130.20703125 C31.29941258 133.46804273 30.6442774 136.73236271 30 140 C29.66699175 141.66673165 29.33377804 143.33342234 29 145 C29.99 145.3403125 29.99 145.3403125 31 145.6875 C41.27122107 150.18115922 50.50735281 157.27941147 55.1875 167.625 C56.34286034 172.42418912 56.15732133 177.08807852 56 182 C55.01 182 54.02 182 53 182 C52.79246094 181.443125 52.58492187 180.88625 52.37109375 180.3125 C47.34597902 167.86535389 37.74601384 160.87300692 26 155 C26 155.99 26 156.98 26 158 C26.86496094 158.24363281 27.72992188 158.48726562 28.62109375 158.73828125 C36.99776148 161.86621614 44.59977558 168.22627019 49 176 C50.88874653 180.67498255 51.27001417 184.65893859 51.25 189.6875 C51.25773437 191.64236328 51.25773437 191.64236328 51.265625 193.63671875 C51 197 51 197 49 200 C48.85304688 199.38253906 48.70609375 198.76507813 48.5546875 198.12890625 C44.48167464 182.74977148 33.85754934 173.97342261 20.56640625 166.01953125 C20.01140945 165.71304153 19.45641266 165.40655182 18.88459778 165.09077454 C17 164 17 164 14.866745 162.51115417 C7.01673128 157.4562923 -0.19562665 157.20564749 -9.20915985 157.36381531 C-11.72459814 157.40715846 -14.23769647 157.41210325 -16.753479 157.40783691 C-22.08605935 157.40535341 -27.41769604 157.44917038 -32.75 157.5 C-38.94900182 157.55892137 -45.14686233 157.59835847 -51.34616852 157.58781433 C-53.81475022 157.59364461 -56.28103699 157.63522408 -58.74920654 157.67834473 C-71.09845328 157.76024646 -71.09845328 157.76024646 -75.50878906 154.33789062 C-78.11670463 151.39083262 -79.0356492 148.99302612 -79 145 C-78.61883871 142.4434045 -78.16465577 140.05816868 -77.55859375 137.55859375 C-77.39569855 136.84577744 -77.23280334 136.13296112 -77.06497192 135.39854431 C-76.53236454 133.07579043 -75.98484985 130.75681941 -75.4375 128.4375 C-74.69059549 125.2002958 -73.95116106 121.96139363 -73.2109375 118.72265625 C-72.93012077 117.50171265 -72.93012077 117.50171265 -72.64363098 116.25610352 C-70.54302818 107.09000249 -68.66915918 97.88078328 -66.81616211 88.66186523 C-66.58936768 87.54368408 -66.36257324 86.42550293 -66.12890625 85.2734375 C-65.83608765 83.81043213 -65.83608765 83.81043213 -65.53735352 82.31787109 C-65 80 -65 80 -64 78 C-59.67028813 79.29144372 -56.14861972 80.95034712 -52.33984375 83.37109375 C-51.29892578 84.02787109 -50.25800781 84.68464844 -49.18554688 85.36132812 C-47.57776367 86.3890332 -47.57776367 86.3890332 -45.9375 87.4375 C-43.80093851 88.79061294 -41.66422522 90.1434862 -39.52734375 91.49609375 C-38.11569946 92.39606079 -38.11569946 92.39606079 -36.67553711 93.31420898 C-34.13779229 94.91318042 -31.57811071 96.46715616 -29 98 C-30.68715393 107.42891697 -32.55762227 116.73118638 -35 126 C-34.37432129 125.99476318 -33.74864258 125.98952637 -33.10400391 125.98413086 C-30.27767943 125.96338382 -27.45137095 125.95034714 -24.625 125.9375 C-23.64015625 125.92912109 -22.6553125 125.92074219 -21.640625 125.91210938 C-20.22910156 125.90727539 -20.22910156 125.90727539 -18.7890625 125.90234375 C-17.48509521 125.89448853 -17.48509521 125.89448853 -16.15478516 125.88647461 C-14 126 -14 126 -12 127 C-12 123.7 -12 120.4 -12 117 C-11.34 116.67 -10.68 116.34 -10 116 C-9.01 118.31 -8.02 120.62 -7 123 C-7.495 118.545 -7.495 118.545 -8 114 C-6.68 113.34 -5.36 112.68 -4 112 C-3.17058248 110.03644434 -3.17058248 110.03644434 -2.9140625 107.68359375 C-2.69218262 106.33177002 -2.69218262 106.33177002 -2.46582031 104.95263672 C-2.23523926 103.49108154 -2.23523926 103.49108154 -2 102 C-1.60141369 99.96801102 -1.19205119 97.93811405 -0.7734375 95.91015625 C-0.55018799 94.81324463 -0.32693848 93.71633301 -0.09692383 92.58618164 C2.95256204 77.70176178 6.25770144 62.88666947 9.68695068 48.08543396 C10.3115332 45.38265437 10.92986247 42.67846856 11.54681396 39.97393799 C11.85210464 38.64418639 12.16080964 37.3152146 12.47271729 35.98699951 C12.92368986 34.06487252 13.36246685 32.13989672 13.80078125 30.21484375 C14.05641846 29.11132568 14.31205566 28.00780762 14.57543945 26.87084961 C15.13417568 23.09271318 14.79230154 21.20718107 12.70898438 18.03295898 C12.17595703 17.36079346 11.64292969 16.68862793 11.09375 15.99609375 C10.51496094 15.25552734 9.93617188 14.51496094 9.33984375 13.75195312 C8.73269531 12.98818359 8.12554687 12.22441406 7.5 11.4375 C6.29839561 9.91827406 5.10031502 8.39625253 3.90625 6.87109375 C3.37322266 6.20005615 2.84019531 5.52901855 2.29101562 4.83764648 C1 3 1 3 0 0 Z " fill="#1C98CD" transform="translate(312,146)"/>
<path d="M0 0 C21.78 0 43.56 0 66 0 C66 28.71 66 57.42 66 87 C62.13793675 85.4551747 59.10930593 83.96724684 55.62109375 81.8125 C54.61755859 81.19632812 53.61402344 80.58015625 52.58007812 79.9453125 C51.54302734 79.30335938 50.50597656 78.66140625 49.4375 78 C47.37456916 76.72775287 45.31080045 75.45686309 43.24609375 74.1875 C42.33529053 73.62417969 41.4244873 73.06085938 40.48608398 72.48046875 C38.35938106 71.21401225 36.23104801 70.06845342 34 69 C33.83129395 70.06335571 33.83129395 70.06335571 33.65917969 71.14819336 C32.38589742 78.99776164 30.87653755 86.77911785 29.25 94.5625 C28.9926709 95.80088623 28.7353418 97.03927246 28.47021484 98.31518555 C25.76913358 111.23734809 22.90664558 124.12259431 20 137 C17 137 17 137 14.546875 134.65625 C13.60604298 133.61179693 12.67423219 132.55917041 11.75 131.5 C11.25765869 130.94900635 10.76531738 130.3980127 10.25805664 129.83032227 C8.82981852 128.2278002 7.41299064 126.61596745 6 125 C5.36449219 124.27683594 4.72898437 123.55367188 4.07421875 122.80859375 C2.99072799 121.56994918 1.91123128 120.32779844 0.8359375 119.08203125 C-0.63581974 117.41299591 -2.13742771 115.77030308 -3.6484375 114.13671875 C-4.10919678 113.63857666 -4.56995605 113.14043457 -5.04467773 112.62719727 C-6.37895896 111.18813813 -7.7186558 109.75410602 -9.05859375 108.3203125 C-11 106 -11 106 -11 104 C0.55 104 12.1 104 24 104 C24 83.87 24 63.74 24 43 C21.48375 49.125625 18.9675 55.25125 16.375 61.5625 C15.20396729 64.41177124 15.20396729 64.41177124 14.00927734 67.31860352 C13.36802009 68.88031199 12.72690171 70.44207749 12.0859375 72.00390625 C11.56959244 73.26129356 11.56959244 73.26129356 11.04281616 74.54408264 C9.40025648 78.55171568 7.76979734 82.56330666 6.17285156 86.58935547 C5.75599594 87.64025612 5.75599594 87.64025612 5.33071899 88.71238708 C4.58959534 90.58702338 3.85251051 92.46325498 3.11572266 94.33959961 C2 97 2 97 1 98 C-1.0708472 98.1584265 -3.14678029 98.25124422 -5.22265625 98.31640625 C-7.11274414 98.37924805 -7.11274414 98.37924805 -9.04101562 98.44335938 C-10.38150736 98.48317596 -11.7220022 98.52288814 -13.0625 98.5625 C-14.40691523 98.60568042 -15.7513166 98.64929456 -17.09570312 98.69335938 C-20.3970234 98.79985358 -23.69842236 98.9018646 -27 99 C-25.69540214 100.40528111 -24.39080057 101.81055876 -23.08618164 103.21582031 C-21.98345934 104.40917062 -20.88500325 105.60647678 -19.79077148 106.80761719 C-17.43177596 109.39560395 -15.08440582 111.92014941 -12.5390625 114.328125 C-10.64419049 116.17056972 -9.27239563 117.68971652 -8 120 C-10.03541117 128.16667021 -13.84286036 135.85997974 -17.1875 143.5625 C-19.105625 147.996875 -21.02375 152.43125 -23 157 C-37.19 157 -51.38 157 -66 157 C-62.62550607 146.87651822 -62.62550607 146.87651822 -60.89379883 142.8996582 C-60.50457245 142.00041122 -60.11534607 141.10116425 -59.71432495 140.17466736 C-59.29941803 139.22628494 -58.88451111 138.27790253 -58.45703125 137.30078125 C-58.01666534 136.2853273 -57.57629944 135.26987335 -57.12258911 134.22364807 C-56.17929566 132.04903964 -55.23440607 129.875123 -54.28805542 127.70184326 C-51.7746718 121.92861392 -49.27415636 116.14981772 -46.7734375 110.37109375 C-46.27373947 109.21691956 -45.77404144 108.06274536 -45.25920105 106.87359619 C-41.08998417 97.23307318 -36.99332166 87.56367745 -32.9375 77.875 C-25.7289285 60.66136093 -18.37964796 43.50921348 -11.00366211 26.36669922 C-10.56833664 25.35374786 -10.13301117 24.34079651 -9.68449402 23.29714966 C-8.87293936 21.40888037 -8.06037131 19.52104612 -7.24653625 17.63375854 C-6.87739609 16.77460846 -6.50825592 15.91545837 -6.12792969 15.03027344 C-5.81200867 14.2966156 -5.49608765 13.56295776 -5.17059326 12.80706787 C-3.39862908 8.55792013 -1.70981401 4.27453502 0 0 Z " fill="#020202" transform="translate(210,146)"/>
<path d="M0 0 C19.8 0 39.6 0 60 0 C55.39708033 24.16532827 55.39708033 24.16532827 53.1875 33.875 C52.67444944 36.1471287 52.16142999 38.41926443 51.6484375 40.69140625 C51.38256836 41.86461426 51.11669922 43.03782227 50.84277344 44.24658203 C50.09383495 47.58209195 49.35877013 50.92010719 48.63121033 54.26031494 C48.01423423 57.0893564 47.39087171 59.91697233 46.76675415 62.7444458 C46.46683613 64.10986364 46.16956108 65.47586503 45.87509155 66.84246826 C45.46191654 68.75727391 45.03778722 70.66970571 44.61328125 72.58203125 C44.37391846 73.67749268 44.13455566 74.7729541 43.88793945 75.90161133 C40.53069496 87.61642845 32.07155402 93.19068868 21.89013672 98.96191406 C13.79912929 103.40559316 5.50951675 107.4268825 -3 111 C-2.31777472 103.58178032 -0.97169391 96.41104276 0.5625 89.125 C0.82135986 87.88355225 1.08021973 86.64210449 1.34692383 85.36303711 C3.96308426 72.90044622 6.8122364 60.49067221 9.68681335 48.08557129 C10.31153848 45.38276787 10.92985018 42.67852245 11.54681396 39.97393799 C11.85210464 38.64418639 12.16080964 37.3152146 12.47271729 35.98699951 C12.92368986 34.06487252 13.36246685 32.13989672 13.80078125 30.21484375 C14.05641846 29.11132568 14.31205566 28.00780762 14.57543945 26.87084961 C15.13417568 23.09271318 14.79230154 21.20718107 12.70898438 18.03295898 C11.90944336 17.02471069 11.90944336 17.02471069 11.09375 15.99609375 C10.51496094 15.25552734 9.93617188 14.51496094 9.33984375 13.75195312 C8.73269531 12.98818359 8.12554687 12.22441406 7.5 11.4375 C6.29839561 9.91827406 5.10031502 8.39625253 3.90625 6.87109375 C3.10670898 5.86453735 3.10670898 5.86453735 2.29101562 4.83764648 C1 3 1 3 0 0 Z " fill="#1891C8" transform="translate(312,146)"/>
<path d="M0 0 C2.29486255 3.44229382 2.09604775 5.00081854 1.4921875 8.9921875 C0.83059559 11.69106244 -0.38729198 13.75623232 -2 16 C-1.67 16.33 -1.34 16.66 -1 17 C0.80066242 14.0534615 2.50163895 11.11198065 4 8 C6.00784159 12.01568318 5.60788594 16.64446771 5 21 C3.49995653 24.1993547 1.47309491 26.50013999 -1 29 C-1.53367187 29.57105469 -2.06734375 30.14210937 -2.6171875 30.73046875 C-9.02334063 36.95155523 -17.18705334 40.84263375 -25 45 C-26.52560547 45.83337891 -26.52560547 45.83337891 -28.08203125 46.68359375 C-35.22959545 50.46633762 -35.22959545 50.46633762 -40 50 C-43.3125 48.125 -43.3125 48.125 -46 46 C-46 45.34 -46 44.68 -46 44 C-45.47269287 43.77449463 -44.94538574 43.54898926 -44.40209961 43.31665039 C-35.24747661 39.37365541 -26.17574198 35.39981615 -17.625 30.25 C-17.038396 29.8981665 -16.45179199 29.54633301 -15.84741211 29.18383789 C-11.9266868 26.7540686 -8.47984683 24.00675587 -5 21 C-5.33 20.67 -5.66 20.34 -6 20 C-6.48726563 20.4125 -6.97453125 20.825 -7.4765625 21.25 C-16.85456503 28.88880934 -27.37287162 34.3439736 -38.25 39.5 C-38.98927734 39.85054443 -39.72855469 40.20108887 -40.49023438 40.56225586 C-45.74283903 43 -45.74283903 43 -48 43 C-49.61949011 40.42786866 -50.04408751 39.32330841 -49.625 36.25 C-49.41875 35.5075 -49.2125 34.765 -49 34 C-47.515 33.505 -47.515 33.505 -46 33 C-45.67 32.01 -45.34 31.02 -45 30 C-44.01 30 -43.02 30 -42 30 C-39.45233558 28.8488764 -36.98175145 27.65457666 -34.5 26.375 C-33.78384521 26.00963135 -33.06769043 25.6442627 -32.32983398 25.26782227 C-30.21640743 24.18516211 -28.10815855 23.09287186 -26 22 C-24.94941406 21.46503906 -23.89882813 20.93007812 -22.81640625 20.37890625 C-14.07159897 15.80183691 -3.27690994 9.83072982 0 0 Z " fill="#939698" transform="translate(354,225)"/>
<path d="M0 0 C1.75 2.5 1.75 2.5 3 5 C3.33 3.35 3.66 1.7 4 0 C5.98 0 7.96 0 10 0 C10 5.94 10 11.88 10 18 C8.35 18 6.7 18 5 18 C2.6875 15 2.6875 15 1 12 C0.67 13.98 0.34 15.96 0 18 C-1.98 18 -3.96 18 -6 18 C-6 12.39 -6 6.78 -6 1 C-4 0 -4 0 0 0 Z " fill="#121212" transform="translate(179,319)"/>
<path d="M0 0 C2.13501503 1.56957726 2.88491508 2.48787212 3.46875 5.0859375 C3.53004233 9.57560094 3.4994597 11.38528037 0.5625 15 C-0.283125 15.66 -1.12875 16.32 -2 17 C-2.33 17.33 -2.66 17.66 -3 18 C-6.21701789 18.28595715 -8.31097361 18.38555628 -11.1640625 16.7890625 C-13 15 -13 15 -13.56640625 12.6953125 C-13.55964199 8.24442741 -13.44829851 5.70046642 -11 1.875 C-6.87482448 -0.7032347 -4.80963881 -0.62059856 0 0 Z " fill="#2095CA" transform="translate(286,319)"/>
<path d="M0 0 C2.31 0 4.62 0 7 0 C7.83919398 2.26882087 8.67151724 4.53977027 9.5 6.8125 C9.73847656 7.45509766 9.97695312 8.09769531 10.22265625 8.75976562 C11.27068746 11.64933739 12 13.90076061 12 17 C8.37 16.67 4.74 16.34 1 16 C1 16.66 1 17.32 1 18 C-0.65 18 -2.3 18 -4 18 C-3.31195504 11.80759538 -1.71951285 5.98044406 0 0 Z " fill="#111111" transform="translate(160,319)"/>
<path d="M0 0 C1.65 0 3.3 0 5 0 C5 2.31 5 4.62 5 7 C5.99 7 6.98 7 8 7 C8 4.69 8 2.38 8 0 C9.65 0 11.3 0 13 0 C13 5.61 13 11.22 13 17 C11.35 17 9.7 17 8 17 C8 15.68 8 14.36 8 13 C7.01 13 6.02 13 5 13 C5 14.65 5 16.3 5 18 C3.35 18 1.7 18 0 18 C0 12.06 0 6.12 0 0 Z " fill="#1C93C9" transform="translate(306,320)"/>
<path d="M0 0 C0.80824219 0.11085938 1.61648438 0.22171875 2.44921875 0.3359375 C3.37154297 0.47902344 3.37154297 0.47902344 4.3125 0.625 C3.9825 1.945 3.6525 3.265 3.3125 4.625 C1.0025 4.625 -1.3075 4.625 -3.6875 4.625 C-3.6875 5.285 -3.6875 5.945 -3.6875 6.625 C-2.73875 6.58375 -1.79 6.5425 -0.8125 6.5 C2.3125 6.625 2.3125 6.625 4.3125 8.625 C4.5625 12.125 4.5625 12.125 4.3125 15.625 C2.3125 17.625 2.3125 17.625 -0.2890625 17.8203125 C-1.28679687 17.79710937 -2.28453125 17.77390625 -3.3125 17.75 C-4.81683594 17.72292969 -4.81683594 17.72292969 -6.3515625 17.6953125 C-7.12242187 17.67210937 -7.89328125 17.64890625 -8.6875 17.625 C-8.3125 15.1875 -8.3125 15.1875 -7.6875 12.625 C-7.0275 12.295 -6.3675 11.965 -5.6875 11.625 C-6.203125 11.274375 -6.71875 10.92375 -7.25 10.5625 C-8.6875 8.625 -8.6875 8.625 -8.5625 5.0625 C-7.22435667 -0.19449165 -4.93502864 -0.71522154 0 0 Z " fill="#2497CB" transform="translate(299.6875,319.375)"/>
<path d="M0 0 C1.65 0 3.3 0 5 0 C5.56312292 11.90900701 5.56312292 11.90900701 2 16 C-1.46923881 18.31282587 -2.92205575 18.42478586 -7 18 C-8.875 16.5 -8.875 16.5 -10 15 C-9.67 14.01 -9.34 13.02 -9 12 C-6 11 -6 11 -1 12 C-0.67 8.04 -0.34 4.08 0 0 Z " fill="#2095CA" transform="translate(266,319)"/>
<path d="M0 0 C1.65 0 3.3 0 5 0 C5 3.96 5 7.92 5 12 C7.31 12 9.62 12 12 12 C12 13.65 12 15.3 12 17 C8.04 17.33 4.08 17.66 0 18 C0 12.06 0 6.12 0 0 Z " fill="#090909" transform="translate(197,319)"/>
<path d="M0 0 C10.72766561 4.01322742 20.67737289 11.11286808 26.26953125 21.31640625 C27.24186756 24.88857225 26.97287541 28.17720201 26.625 31.8125 C26.56828125 32.50537109 26.5115625 33.19824219 26.453125 33.91210938 C26.31269396 35.60898446 26.15780593 37.30465248 26 39 C25.67 39 25.34 39 25 39 C24.97421875 38.23816406 24.9484375 37.47632813 24.921875 36.69140625 C24.46634829 28.39874958 23.21271063 21.85525276 17.8125 15.375 C9.49100534 8.29287314 9.49100534 8.29287314 0 3 C0 2.01 0 1.02 0 0 Z " fill="#D5F2FB" transform="translate(338,301)"/>
<path d="M0 0 C1.98 0 3.96 0 6 0 C6.02684312 2.81256281 6.04676188 5.62487241 6.0625 8.4375 C6.07087891 9.23994141 6.07925781 10.04238281 6.08789062 10.86914062 C6.0965143 12.91295221 6.0522815 14.95683902 6 17 C5.67 17.33 5.34 17.66 5 18 C3.35 18 1.7 18 0 18 C0 12.06 0 6.12 0 0 Z " fill="#191919" transform="translate(190,319)"/>
<path d="M0 0 C0.495 1.485 0.495 1.485 1 3 C-3.71320844 7.2936213 -8.54646649 10.81171094 -14.0625 14 C-14.79331787 14.42716309 -15.52413574 14.85432617 -16.27709961 15.29443359 C-22.95926632 19.12294674 -29.82798756 22.2039381 -37 25 C-37 24.01 -37 23.02 -37 22 C-35.51113281 21.27296875 -35.51113281 21.27296875 -33.9921875 20.53125 C-15.89600144 11.94470778 -15.89600144 11.94470778 0 0 Z " fill="#2692C2" transform="translate(349,243)"/>
<path d="M0 0 C1.65 0 3.3 0 5 0 C5 5.94 5 11.88 5 18 C3.35 18 1.7 18 0 18 C0 12.06 0 6.12 0 0 Z " fill="#1D94C9" transform="translate(321,319)"/>
<path d="M0 0 C0.33 0 0.66 0 1 0 C1 5.61 1 11.22 1 17 C0.67 17 0.34 17 0 17 C-0.66 13.7 -1.32 10.4 -2 7 C-4.31 6.34 -6.62 5.68 -9 5 C-9 4.34 -9 3.68 -9 3 C-6.69 3 -4.38 3 -2 3 C-1.67 2.34 -1.34 1.68 -1 1 C-0.67 0.67 -0.34 0.34 0 0 Z " fill="#BADEEE" transform="translate(305,321)"/>
<path d="M0 0 C3.17661443 2.9460537 3.69016466 4.58484637 4 9 C3.77962219 13.01292612 3.42035029 17.00343879 3 21 C2.67 21 2.34 21 2 21 C1.93941406 20.23816406 1.87882812 19.47632813 1.81640625 18.69140625 C1.30963298 12.44640026 0.7260533 6.22331399 0 0 Z " fill="#B0EEFE" transform="translate(361,319)"/>
<path d="M0 0 C1.2065625 0.0309375 1.2065625 0.0309375 2.4375 0.0625 C2.1075 1.7125 1.7775 3.3625 1.4375 5.0625 C0.1175 5.3925 -1.2025 5.7225 -2.5625 6.0625 C-2.94468767 4.40635343 -3.27645102 2.73792976 -3.5625 1.0625 C-2.5625 0.0625 -2.5625 0.0625 0 0 Z " fill="#F5FAFC" transform="translate(281.5625,324.9375)"/>
<path d="M0 0 C1.32 0.33 2.64 0.66 4 1 C3.34 2.32 2.68 3.64 2 5 C0.68 4.67 -0.64 4.34 -2 4 C-1.34 2.68 -0.68 1.36 0 0 Z " fill="#349FCF" transform="translate(323,313)"/>
<path d="M0 0 C1.98 0.495 1.98 0.495 4 1 C3.67 2.32 3.34 3.64 3 5 C1.68 5 0.36 5 -1 5 C-0.67 3.35 -0.34 1.7 0 0 Z " fill="#272727" transform="translate(192,313)"/>
<path d="M0 0 C0.66 0.33 1.32 0.66 2 1 C2.4140625 3.28515625 2.4140625 3.28515625 2.625 6.0625 C2.69976562 6.98160156 2.77453125 7.90070313 2.8515625 8.84765625 C2.92503906 9.91306641 2.92503906 9.91306641 3 11 C0.22096498 8.43013966 -0.61750105 6.82498947 -1 3 C-0.67 2.01 -0.34 1.02 0 0 Z " fill="#E9EFF2" transform="translate(303,259)"/>
<path d="M0 0 C0.66 1.32 1.32 2.64 2 4 C0.35 6.31 -1.3 8.62 -3 11 C-4 8 -4 8 -3.22265625 5.95703125 C-2.83980469 5.24933594 -2.45695312 4.54164063 -2.0625 3.8125 C-1.68222656 3.09707031 -1.30195313 2.38164062 -0.91015625 1.64453125 C-0.60980469 1.10183594 -0.30945313 0.55914062 0 0 Z " fill="#EDEEEE" transform="translate(355,233)"/>
</svg>
