<svg version="1.1" id="Layer_1" xmlns="http://www.w3.org/2000/svg" xmlns:xlink="http://www.w3.org/1999/xlink" x="0px" y="0px"
	 width="100%" viewBox="0 0 496 496" enable-background="new 0 0 496 496" xml:space="preserve">
<path fill="#000000" opacity="1.000000" stroke="none" 
	d="
M326.133270,308.890320 
	C320.398041,304.886932 314.359253,304.125031 307.835083,304.208557 
	C287.849182,304.464478 267.857941,304.316437 247.868774,304.301147 
	C237.014145,304.292847 232.480103,298.706757 234.815964,288.053101 
	C239.086899,268.573822 243.451202,249.114975 247.790665,229.650742 
	C248.147171,228.051666 248.386490,226.366852 249.858322,225.292007 
	C251.718903,224.987625 253.092590,226.042450 254.487839,226.890381 
	C263.310242,232.251938 272.071503,237.715240 280.936646,243.004669 
	C283.600006,244.593796 284.532135,246.281158 283.721466,249.510635 
	C281.868500,256.892120 280.490997,264.392975 278.778442,272.518707 
	C285.318665,272.518707 291.381927,272.582245 297.442444,272.479980 
	C299.261749,272.449310 299.680634,271.051636 299.941864,269.367737 
	C300.286896,267.143433 300.361847,264.691803 302.404022,262.977325 
	C304.269806,264.567383 303.752686,267.456482 306.072540,269.084808 
	C306.636475,267.150909 305.220673,265.923248 304.908417,264.474213 
	C304.431946,262.262848 304.125610,260.202911 306.708099,258.931335 
	C308.671631,257.964539 309.269440,256.106384 309.720825,254.048813 
	C315.630768,227.110352 321.580658,200.180557 327.599487,173.266235 
	C328.267914,170.277283 327.889435,167.866257 325.872314,165.438812 
	C322.363617,161.216293 319.070129,156.807693 315.835175,152.368683 
	C314.623383,150.705811 312.665955,149.338730 312.852539,146.881531 
	C314.235504,145.365509 316.009949,145.853516 317.587463,145.848892 
	C334.411499,145.799545 351.236298,145.887878 368.059479,145.755417 
	C372.267303,145.722275 373.557587,146.734955 372.533173,151.281204 
	C367.165253,175.103210 362.134399,199.001190 356.995514,222.874741 
	C356.752289,224.004761 356.165283,225.286240 356.469238,226.271759 
	C358.346588,232.358841 356.423187,237.639481 352.392273,243.580124 
	C356.127411,240.786392 356.439972,237.140793 358.755768,234.307251 
	C361.765198,239.077026 361.417572,243.467499 359.346313,247.862732 
	C358.572540,249.504654 357.813782,251.513428 356.433960,252.452087 
	C346.838470,258.979889 346.815948,269.706512 344.522614,279.332428 
	C341.955322,290.108459 342.214111,290.148071 351.530945,296.084503 
	C363.767670,303.881409 371.569305,314.052307 369.291718,329.561005 
	C369.057220,331.157959 369.366333,332.938629 367.513947,334.279602 
	C364.975006,330.235107 365.404053,324.939240 361.747894,321.428955 
	C365.866669,329.766113 366.493225,338.194641 362.954254,346.717407 
	C361.888824,347.032684 361.536621,346.352814 361.413910,345.775208 
	C357.880524,329.142883 345.338654,320.400238 332.102142,312.273254 
	C330.259186,311.141693 328.334198,310.143799 326.133270,308.890320 
z"/>
<path fill="#000000" opacity="1.000000" stroke="none" 
	d="
M233.284302,194.411224 
	C226.943253,210.006714 220.614288,225.229767 214.592087,240.573212 
	C213.129608,244.299332 211.115540,245.618759 207.163544,245.441177 
	C200.236130,245.129929 193.284653,245.354309 185.608810,245.354309 
	C188.854980,252.114487 193.560760,256.658630 198.025543,261.165497 
	C202.511261,265.693481 203.534058,269.637238 200.486435,275.542175 
	C196.449844,283.363281 193.373123,291.691223 190.088913,299.883514 
	C188.804031,303.088531 187.014755,304.480438 183.388855,304.406616 
	C172.226837,304.179382 161.057266,304.327911 149.890671,304.313110 
	C148.406067,304.311157 146.878326,304.497101 145.327148,303.560669 
	C144.915283,300.291992 146.932632,297.625000 148.121460,294.828247 
	C168.514709,246.852081 189.047089,198.935028 209.399933,150.941818 
	C211.014481,147.134659 213.081482,145.685089 217.229507,145.726532 
	C235.727478,145.911362 254.228912,145.851929 272.728088,145.728607 
	C276.438507,145.703903 278.232605,146.732697 278.174103,150.796768 
	C277.788269,177.620850 277.550446,204.447067 277.246826,231.272400 
	C277.235931,232.233871 277.388245,233.308487 275.578857,234.475891 
	C266.139465,228.694107 256.331512,222.686569 245.885391,216.288147 
	C240.661362,239.923782 235.639755,262.643555 230.300583,286.800140 
	C219.214233,274.330872 209.217697,263.087372 199.286011,251.916809 
	C200.943039,249.457870 202.936172,250.112045 204.641724,250.091782 
	C212.974060,249.992737 221.307770,249.962677 229.640747,249.987839 
	C232.532196,249.996567 234.609222,249.210587 234.611053,245.873840 
	C234.621109,227.585358 234.615829,209.296860 234.615829,191.198456 
	C233.883118,191.463882 234.217087,193.146683 233.284302,194.411224 
z"/>
<path fill="#000000" opacity="1.000000" stroke="none" 
	d="
M327.207825,319.243896 
	C329.048645,324.792603 327.987030,330.140991 327.995148,335.427429 
	C327.996277,336.147705 327.476715,337.047302 326.917969,337.556122 
	C325.307648,339.022522 315.944000,338.247406 313.674103,336.384399 
	C311.491699,339.198517 308.964478,341.058563 305.689362,337.739166 
	C304.542908,336.577209 303.552216,337.638977 302.545593,338.071533 
	C300.190582,339.083496 297.823456,339.540405 295.258575,338.809875 
	C292.016022,337.886322 290.401398,336.248810 292.868652,333.155060 
	C295.027832,330.447632 292.030396,331.009857 291.471710,329.064331 
	C288.706573,335.293365 285.341125,339.286377 278.923737,338.107086 
	C275.260712,337.433929 273.227173,334.812561 272.854767,331.092896 
	C272.379303,326.343628 275.000488,321.656708 278.937653,320.005554 
	C283.940918,317.907288 286.918121,318.809448 291.266632,323.960754 
	C294.992340,319.315521 299.657410,318.533936 304.979034,320.898682 
	C305.544586,321.149994 306.322693,321.254547 306.903717,321.086609 
	C311.266724,319.825378 313.282074,321.607605 313.370605,326.496155 
	C313.855438,321.150421 316.222839,318.676819 321.448303,319.913239 
	C321.957001,316.824738 321.809326,313.190308 326.008575,314.056976 
	C328.942596,314.662537 327.903992,316.991486 327.207825,319.243896 
M283.482941,330.025391 
	C284.349213,328.871918 284.979950,327.705658 283.287750,326.735138 
	C282.297852,326.167358 281.336456,326.455719 280.573181,327.196625 
	C279.710541,328.033997 279.041565,329.051788 279.751160,330.278656 
	C280.697479,331.914825 281.879578,331.424500 283.482941,330.025391 
z"/>
<path fill="#000000" opacity="1.000000" stroke="none" 
	d="
M156.649689,335.366028 
	C157.783798,330.980194 158.900070,326.984833 159.973480,322.977936 
	C160.674103,320.362640 162.426483,319.215515 165.039978,319.048218 
	C167.681656,318.879089 168.376312,320.806183 169.090439,322.688110 
	C170.321945,325.933502 171.489655,329.203125 173.169800,333.787872 
	C173.397339,330.503815 173.494995,328.525787 173.681091,326.556091 
	C173.901382,324.224701 172.922852,321.584412 176.199402,320.224518 
	C179.351593,318.916168 180.711212,321.323120 182.986038,322.949493 
	C183.867386,320.349335 185.645370,319.162842 188.243637,319.932709 
	C190.945206,320.733154 190.130707,323.124695 190.220078,324.972321 
	C190.364517,327.958527 190.301422,330.956299 190.274017,333.948730 
	C190.258896,335.600037 190.408081,337.403473 188.377396,338.125641 
	C186.340988,338.849823 184.881149,338.032715 183.688934,336.342590 
	C183.050095,335.436951 182.476166,334.333710 180.787872,334.159302 
	C180.256775,339.086395 178.196625,339.240479 173.466980,337.893005 
	C170.026260,336.912720 165.475693,335.190338 161.292450,337.908203 
	C159.834564,338.855377 156.816788,339.397675 156.649689,335.366028 
z"/>
<path fill="#000000" opacity="1.000000" stroke="none" 
	d="
M197.091248,317.273499 
	C196.739120,318.860992 197.250381,319.768372 198.468216,319.628052 
	C203.120926,319.092102 203.674698,321.792175 203.367752,325.424500 
	C203.070297,328.944153 203.035477,332.321716 208.224625,331.824158 
	C209.624512,331.689880 210.199554,332.796021 210.224869,334.145599 
	C210.251495,335.564484 210.018692,336.753906 208.419662,337.288483 
	C203.215378,339.028320 197.873032,338.003998 192.595673,338.059052 
	C190.899994,338.076752 190.776505,336.322235 190.783203,334.988220 
	C190.813171,329.015564 190.850525,323.041656 191.012451,317.071686 
	C191.063934,315.173035 192.328644,314.016083 194.219284,313.871490 
	C196.300858,313.712341 197.288208,314.823029 197.091248,317.273499 
z"/>
<path fill="#000000" opacity="1.000000" stroke="none" 
	d="
M272.372803,325.028992 
	C272.317047,328.134460 272.391205,330.806335 271.165405,333.278168 
	C268.818665,338.010437 262.746216,339.969147 259.001495,337.148560 
	C257.808563,336.250061 256.545837,335.162415 257.148407,333.440826 
	C257.685608,331.905945 259.260315,330.732605 260.609985,331.102753 
	C266.666351,332.763641 266.169495,328.416443 266.658661,324.883698 
	C266.681274,324.720551 266.665222,324.552277 266.669800,324.386414 
	C266.733398,322.091339 266.300018,319.187805 269.707611,319.241821 
	C273.383698,319.299988 271.968079,322.533661 272.372803,325.028992 
z"/>
</svg>